<svg xmlns="http://www.w3.org/2000/svg" width="600" height="600" style="overflow:hidden!important"><path fill="#ecf0f1" d="M675 675H-75V-75h750v750z"/><path fill="#2a232b" d="M301.5 301.5h-3v-3h3v3z"/><path fill="#cda184" d="M586.251 599.334c-6.588-14.238-24.585-35.337-44.58-41.166-24.717-7.209-80.511-15.924-101.199-20.769-16.584-3.888-49.986-33.882-61.692-43.95-2.1-1.8-3.819-5.517-3.861-8.28-.417-32.592 12.585-119.172 12.585-119.172H212.499s13.002 86.577 12.579 119.172c-.033 2.763-1.761 6.48-3.855 8.28-11.706 10.068-45.108 40.062-61.692 43.95-20.691 4.845-76.485 13.857-101.199 21.066-20.001 5.826-37.992 26.628-44.58 40.866C2.628 623.355 0 666.831 0 704.331h600c0-37.497-2.631-80.973-13.749-104.997z"/><path fill="#dcbaa4" d="M477.468 552.174c73.026 10.626 103.758 26.124 113.382 152.163H600c0-37.5-2.631-80.976-13.749-105-6.588-14.238-24.585-35.337-44.58-41.166-24.717-7.209-80.511-15.924-101.199-20.769-16.584-3.888-54.726-36.207-64.929-49.05 10.08 14.112 38.373 46.815 63.162 55.38 11.859 4.098 21.735 5.964 38.763 8.442zm-316.17-8.442c24.789-8.562 53.079-41.268 63.162-55.38-10.2 12.84-48.342 45.162-64.929 49.05-20.688 4.845-76.482 13.857-101.199 21.066-19.995 5.826-37.992 26.628-44.58 40.866-11.118 24.024-13.749 67.5-13.749 105h9.15c9.564-125.232 40.425-141.549 113.382-152.163 17.025-2.475 26.904-4.341 38.763-8.439z"/><path fill="#be8a67" d="M286.938 592.86s-15.222-4.827-21.249-7.137c-31.347-12.027-133.185-19.821-133.185-19.821s107.262 4.257 130.932 8.337c-1.374-14.301-9.051-60.012-9.051-60.012s15.447 50.445 19.227 63.171c2.022 6.804 13.326 15.462 13.326 15.462zm32.397-4.026c-.267.219-.573.504-.906.804.339-.255.645-.522.906-.804zm-32.397 4.026s8.679 8.976 13.041 9.09c5.73.153 14.484-8.697 18.453-12.312-3.795 2.871-12.477 4.173-15.93 4.308-3.99.153-15.564-1.086-15.564-1.086zm63.054-22.557c-4.635.744-13.158 2.367-13.158 2.367l6.861-44.67c-1.938 9.213-13.422 48.633-24.36 60.834 5.73-4.848 18.474-7.173 24.972-8.112 30.708-4.452 30.696-4.449 123.186-14.82 0 0-87.213-.465-117.501 4.401z"/><path fill="none" stroke="#9f6037" stroke-width="4.5" d="M586.251 599.334c-6.588-14.238-24.585-35.337-44.58-41.166-24.717-7.209-80.511-15.924-101.199-20.769-16.584-3.888-49.986-33.882-61.692-43.95-2.1-1.8-3.819-5.517-3.861-8.28-.417-32.592 12.585-119.172 12.585-119.172H212.499s13.002 86.577 12.579 119.172c-.033 2.763-1.761 6.48-3.855 8.28-11.706 10.068-45.108 40.062-61.692 43.95-20.691 4.845-76.485 13.857-101.199 21.066-20.001 5.826-37.992 26.628-44.58 40.866C2.628 623.355 0 666.831 0 704.331h600c0-37.497-2.631-80.973-13.749-104.997z"/><path fill="url(#a)" d="M100.021 171.866c8.183 0 16.871-4.943 24.199-10.675-.001-6.702 1.451-19.105 2.652-28.205-15.382-2.247-38.406-2.279-53.766-.152 1.184 8.96 2.625 21.206 2.671 28.02 7.342 5.913 16.045 11.012 24.244 11.012z" transform="scale(3)"/><path fill="#f5f4f5" d="m128.31 707.271 3.969-182.556s30.582-7.461 49.905-18.939c52.488 65.859 208.353 51.999 235.008-1.86 4.467 1.575 8.163 3.591 12.786 5.139 15 10.158 27.639 13.482 27.639 13.482l2.805 185.055c-42.858.564-332.112-.321-332.112-.321z"/><path fill="#fff" d="M462.042 533.115c-12.708-2.157-22.833-5.091-28.356-10.632-16.029 30.075-80.289 49.134-101.565 51.927 61.662-18.828 87.564-32.439 97.794-64.749 5.97 7.149 19.566 10.647 36.939 13.614l-4.812 9.84zm-304.032-9.972c4.362-.936 6.54-3.702 10.869-4.779l-4.584-5.601c-9.342 6.702-26.913 9.915-47.7 13.272l.564 11.214c11.868-2.37 23.451-5.364 34.287-9.969 22.449 25.455 57.504 37.977 93.18 43.161-44.754-10.755-70.416-28.908-86.616-47.298z"/><path fill="#dfdde2" d="M413.583 510.165c-17.787 34.083-152.22 73.785-228.027 2.598-4.713 1.845-18.813 6.255-18.813 6.255 55.218 69.24 217.035 69.681 260.106-.336-.186-.072-8.886-6.471-13.266-8.517z"/><path fill="#b8b6c9" d="M417.024 503.523c-30.261 55.725-187.734 63.612-234.717 1.875-17.16 4.668-33.657 14.628-50.268 17.121l-3.729 184.752 332.109.321-2.565-187.158c-10.107-2.121-19.503-8.211-27.762-11.682-4.566-1.917-8.442-3.642-13.068-5.229zm-235.854 3.738c41.709 69.258 206.451 55.365 238.257.297 3.858 1.497 4.845 2.088 9.318 3.549-32.946 63.624-195.918 83.901-262.575 3.441.468-.12 10.299-5.661 15-7.287zm-18.309 9.993c53.889 81.138 231.78 68.568 268.749-3.861 5.313 4.173 13.59 8.967 23.808 11.205l4.98 177.24-331.131.048 5.712-174.897c8.352-4.197 21.762-7.293 27.882-9.735z"/><path fill="#386e77" d="M-13.587 706.698c-7.722-41.556-6.876-142.776 27.039-142.563 39.408-15.933 87.807-34.212 128.406-45.933 20.724-21.738 40.308-42.411 78.564-63.942 1.167 7.797 5.622 25.623.033 35.319-4.065 7.056-17.349 16.728-28.662 25.104-6.087 8.16-11.781 16.122-19.797 27.267 15.504 66.903 28.803 101.34 30.291 159.369 0 0-4.356 2.067 193.413 1.191 6.645-67.017 14.979-100.683 31.137-162.294 0 0-12.924-15.042-21.621-26.61-6.162-5.991-25.08-22.596-26.52-25.953-3.525-8.223-1.644-18.564.33-34.101 32.379 14.619 51 36.063 78.246 63.909 23.187 6.357 92.58 29.901 127.335 45.648 11.895-.33 18.609 5.997 23.616 16.398 16.215 33.585 12.378 81.891 6.54 128.367-57.273.093-465.102 6.636-628.35-1.176z"/><path fill="#265e68" d="M221.625 462.243c.48 3.21.912 6.255 1.233 9.123-.654.798-51.636 70.059-52.008 70.575 12.528-28.497 30.45-58.026 50.775-79.698zm156.534 0c-.477 3.21-.552 6.255-.873 9.123.654.798 50.793 67.407 51.162 67.926-13.275-26.55-29.964-55.377-50.289-77.049zm116.865 93.219c-12.84 18.693-15.582 25.146-29.637 43.671 3.213 0 8.397.498 11.61.498 10.992-18.855 11.013-28.452 18.027-44.169zm13.158 135.675c11.379-26.7 20.802-50.133 32.217-76.872l-3.741-6.042c-9.507 27.465-19.596 55.374-28.476 82.914zm-385.038-91.506c3.213 0 8.397-.498 11.613-.498-14.055-18.525-16.797-19.683-29.634-38.376 7.008 15.717 7.029 20.019 18.021 38.874zm-59.661 8.592-3.741 6.042c11.418 26.739 14.295 50.172 25.677 76.872-8.883-27.54-12.429-55.449-21.936-82.914z"/><path fill="#184f58" d="M196.914 507.849c3.543-4.938 15.711-21.816 25.803-37.683 2.964 16.371-2.478 26.082-25.803 37.683zM377.22 469.08c7.659 13.188 16.686 26.316 25.992 38.409-25.212-11.481-26.907-23.22-25.992-38.409z"/><path fill="#4d7e86" d="M378.954 454.077c.024-.183.051-.354.069-.522 54.279 29.997 85.728 75.06 122.241 108.651-1.344 2.163-3.684 3.579-5.061 5.715-38.235-29.094-56.406-73.083-117.249-113.844zm-163.746 1.989c-45.102 24.639-108.726 100.071-114.954 105.807 1.344 2.172 2.073 1.731 3.45 3.864 38.238-29.091 48.675-57.888 111.504-109.671zm369.399 107.046c-3-2.397-73.938-30.117-127.77-44.907 101.094 48.897 136.761 55.635 154.413 72.963-1.149-2.997-3.492-28.701-26.643-28.056zm-442.233-45.447c-40.572 11.742-92.517 30.294-128.925 46.473-16.092.318-27.624 23.79-30.093 48.252 22.386-50.439 11.325-16.53 159.018-94.725z"/><path fill="#0c4049" d="M619.8 630.186c-1.02-25.905-9.165-69.309-35.073-67.38-2.142-1.83-62.466-29.301-126.855-46.833-22.059-22.365-49.545-52.794-79.113-62.871-2.133 19.284-4.431 31.866.648 38.142 6.723 7.317 14.79 14.637 22.704 19.566 13.848 18.408 24.417 29.334 24.417 29.334-16.29 62.109-26.445 93.942-32.919 161.064H206.394c-6.471-67.119-16.629-98.952-32.919-161.064 0 0 10.566-10.929 24.417-29.334 7.917-4.932 15.981-12.249 22.704-19.566 5.076-6.276 2.781-18.858.648-38.142-29.568 10.077-57.057 40.506-79.113 62.871-64.389 17.535-124.713 45.003-126.855 46.833-25.911-1.929-34.056 41.475-35.073 67.38C-21.03 661.647-15.492 705-15.042 708h630.087c.45-3.003 5.988-46.353 4.755-77.814zM218.952 489.582c-6.774 6.699-10.974 9.543-19.419 15.846 14.487-18.813 13.023-16.299 23.124-33.687.453 7.476-2.358 16.512-3.705 17.841zM-9.516 702.084c-3.246-38.532-8.748-73.23 1.29-110.976 3.843-14.481 7.452-24.285 22.365-25.527 3.201 16.614 24.396 86.172 42.894 133.599-18.678-72.576-15.933-56.43-24.657-85.356-2.892-9.705-5.562-19.458-8.937-29.016-2.349-6.642-4.95-13.161-6.786-19.959l121.299-44.595c-.837.849-38.685 40.302-39.597 41.412 5.541 9.063 23.448 21.666 32.535 35.274-37.308 3.522-55.524 9.519-69 11.52.993 2.757 27.183 76.059 29.928 82.968-4.437-23.751-14.448-60.891-25.911-81.633 4.23-.537 54.231-7.476 70.179-10.431-4.428-8.562-24.129-25.311-34.677-37.857 61.938-54.486 76.266-82.206 118.779-106.362.45 4.527 1.329 9.033 1.65 13.557-47.385 70.599-52.947 70.701-52.947 70.701 13.755 53.43 31.596 107.472 31.596 162.219l-210.003.462zm390.564-212.502c-1.344-1.329-4.158-10.365-3.705-17.841 10.101 17.391 8.637 14.874 23.124 33.687-8.445-6.303-12.648-9.144-19.419-15.846zm228.468 212.502-210-.462c0-54.747 17.841-108.792 31.596-162.219 0 0-5.562-.102-52.947-70.701.318-4.524 1.197-9.03 1.65-13.557 42.513 24.156 56.838 51.876 118.779 106.362-10.548 12.549-30.249 29.298-34.677 37.857 15.945 2.952 65.946 9.894 70.179 10.431-11.46 20.742-21.471 57.882-25.911 81.633 2.745-6.912 28.935-80.211 29.928-82.968-13.476-2.001-31.692-7.998-69-11.52 9.084-13.608 26.994-26.208 32.535-35.274-.915-1.11-38.76-40.563-39.597-41.412.003 0 121.299 44.595 121.299 44.595-1.833 6.801-4.437 13.317-6.786 19.959-3.375 9.558-6.045 19.311-8.937 29.016-8.724 28.929-5.979 12.78-24.657 85.356 18.498-47.43 39.69-116.985 42.894-133.599 14.913 1.242 18.522 11.046 22.365 25.527 10.035 37.746 4.533 72.447 1.287 110.976z"/><path fill="#cda184" stroke="#9f6037" stroke-width="4.5" d="M140.334 250.839c-7.869-4.44-25.725-25.56-33.414-22.551-4.965 1.938-7.131 16.512-7.914 22.41-.999 7.575-2.787 23.133-.984 30.555 2.175 8.955 10.893 25.521 16.11 33.081 4.404 6.366 15.633 17.391 19.221 24.264 2.277 4.362 4.479 16.119 12.249 15.36 5.022-.492 16.611-9.216 17.232-13.356 3.384-22.431-7.005-81.018-22.5-89.763z"/><path fill="#9f6037" d="M129.939 299.28c-.375-1.668.018-4.473.399-7.185.345-2.472.672-4.803.474-6.453-.753-6.18-4.98-17.925-7.734-24.291-3.177-7.32-8.313-16.545-14.757-18.921-2.664-.99-4.419.189-5.439 1.383-.744.876-.915 1.908-.669 2.028.246.123.798-.732 1.605-1.536.657-.657 1.626-1.221 2.949-1.104-.534 3.078-3.273 19.746-2.088 31.107.933 8.934 4.467 15.606 5.019 16.608.084 1.056.219 2.085.417 3.084 2.607 13.041 13.944 27.87 17.889 32.724.729.894 1.488 1.428 1.68 1.212.186-.222-.261-1.104-.99-2.004-3.894-4.827-15.126-19.599-17.637-32.184-2.67-13.35 6.501-33.144 8.547-37.329a76.808 76.808 0 0 1 2.61 5.427 123.65 123.65 0 0 1 1.743 4.242c-1.206 2.187-9.633 18.126-6.561 30.885 1.14 4.704 6.264 10.767 9.669 12.429 1.872.918 2.577 2.283 3.39 3.864.942 1.839 2.019 3.921 5.124 5.43.633.303 1.206.432 1.713.432.879 0 1.545-.378 2.037-.843.051.804.048 1.833.021 2.784-.03 1.233.123 2.241.387 2.268.264.024.546-.954.576-2.178.048-1.509.039-3.375-.201-4.266-.696-2.631-2.826-5.601-5.082-8.745-2.22-3.093-4.518-6.294-5.091-8.868zm-20.325-11.565c-6.105-20.475 0-39.279 1.374-42.087 2.385 2.355 6.324 6.639 8.037 9.717-1.251 2.469-9.156 18.6-9.411 32.37zm26.34 29.958c-2.814-1.368-3.759-3.201-4.671-4.971-.825-1.605-1.68-3.261-3.843-4.32-.471-.231-.99-.579-1.515-.984-6.972-17.964.762-25.818 2.697-27.426.597 2.193 1.038 4.209 1.233 5.823.183 1.485-.15 3.84-.468 6.123-.396 2.826-.804 5.748-.381 7.638.633 2.82 2.997 6.114 5.28 9.3 2.031 2.829 4.119 5.745 4.827 8.124-.3.474-1.266 1.605-3.159.693z"/><path fill="#cda184" stroke="#9f6037" stroke-width="4.5" d="M458.883 250.839c7.869-4.44 25.722-25.56 33.411-22.551 4.968 1.938 7.137 16.512 7.917 22.41 1.002 7.575 2.784 23.133.984 30.555-2.175 8.955-10.893 25.521-16.113 33.081-4.401 6.366-15.633 17.391-19.218 24.264-2.28 4.362-4.476 16.119-12.252 15.36-5.022-.492-16.605-9.216-17.232-13.356-3.384-22.431 7.005-81.018 22.503-89.763z"/><path fill="#9f6037" d="M464.187 308.148c-2.256 3.141-4.389 6.114-5.085 8.745-.234.891-.246 2.757-.198 4.266.036 1.221.315 2.199.579 2.178.264-.027.417-1.035.387-2.268a32.7 32.7 0 0 1 .018-2.784c.492.465 1.161.843 2.04.843.504 0 1.077-.129 1.71-.432 3.105-1.509 4.185-3.588 5.127-5.43.813-1.581 1.518-2.946 3.393-3.864 3.399-1.662 8.526-7.725 9.669-12.429 3.069-12.759-5.355-28.698-6.564-30.885.609-1.56 1.206-3.006 1.746-4.242a74.109 74.109 0 0 1 2.607-5.427c2.046 4.185 11.214 23.979 8.544 37.329-2.514 12.585-13.746 27.354-17.637 32.184-.726.9-1.179 1.782-.99 2.004.192.213.954-.318 1.683-1.212 3.942-4.854 15.282-19.683 17.889-32.724.198-.999.333-2.031.417-3.084.552-1.002 4.089-7.674 5.022-16.608 1.185-11.364-1.554-28.029-2.085-31.107 1.323-.117 2.292.447 2.946 1.104.804.804 1.359 1.656 1.605 1.536.24-.123.069-1.152-.669-2.028-1.026-1.191-2.778-2.373-5.439-1.383-6.444 2.376-11.583 11.601-14.76 18.921-2.76 6.369-6.978 18.111-7.734 24.291-.198 1.65.129 3.984.474 6.453.381 2.712.768 5.517.399 7.185-.579 2.574-2.874 5.775-5.094 8.868zm16.005-52.803c1.71-3.078 5.649-7.365 8.034-9.717 1.371 2.808 7.482 21.612 1.377 42.087-.258-13.77-8.163-29.901-9.411-32.37zm-20.091 61.635c.708-2.379 2.796-5.295 4.827-8.124 2.286-3.189 4.647-6.48 5.28-9.3.423-1.893.018-4.812-.381-7.638-.315-2.28-.651-4.638-.468-6.123.198-1.617.639-3.63 1.236-5.823 1.935 1.608 9.669 9.462 2.694 27.426-.528.402-1.044.75-1.512.984-2.169 1.059-3.024 2.715-3.843 4.32-.915 1.77-1.857 3.603-4.677 4.971-1.89.912-2.856-.219-3.156-.693z"/><path fill="#cda184" d="M476.355 234.018h-.015c-.03.138-36.591 120.81-47.637 157.254-2.145 7.074-5.793 13.653-10.668 19.158-19.125 21.582-71.304 75.171-117.972 75.171-47.547 0-100.773-57.135-119.124-78.642-4.326-5.064-7.521-10.899-9.516-17.295a655755.513 655755.513 0 0 1-48.411-155.082h-.003c-3.894-14.976-5.982-30.693-6.006-46.902C116.847 85.608 198.465 2.76 299.319 2.601c100.863-.159 182.739 82.428 182.892 184.497.027 16.209-2.007 31.932-5.856 46.92z"/><path fill="#c59575" d="M396.504 30.78c42.93 33.405 71.013 88.371 71.097 150.624.027 16.212-1.845 31.935-5.388 46.923h-.012c-.027.138-33.669 120.81-43.824 157.251-1.974 7.074-5.328 13.653-9.813 19.155-17.595 21.585-65.598 75.177-108.534 75.177-43.746 0-92.712-57.141-109.593-78.645-3.981-5.067-6.918-10.899-8.754-17.292-9.954-34.656-44.508-154.947-44.538-155.085h-.003c-3.582-14.976-5.502-30.693-5.526-46.902-.087-62.481 28.044-117.717 71.139-151.236-51.579 32.727-85.854 90.774-85.752 156.93.024 16.209 2.112 31.929 6.006 46.902h.003c.03.138 37.59 120.429 48.411 155.082 1.998 6.396 5.19 12.228 9.516 17.295 18.348 21.507 71.574 78.642 119.124 78.642 46.671 0 98.847-53.586 117.972-75.171 4.875-5.505 8.523-12.081 10.668-19.158 11.046-36.444 47.607-157.116 47.637-157.254h.015c3.849-14.991 5.883-30.711 5.856-46.923-.099-65.928-34.32-123.69-85.707-156.315z"/><path fill="none" stroke="#9f6037" stroke-width="4.5" d="M476.355 234.018h-.015c-.03.138-36.591 120.81-47.637 157.254-2.145 7.074-5.793 13.653-10.668 19.158-19.125 21.582-71.304 75.171-117.972 75.171-47.547 0-100.773-57.135-119.124-78.642-4.326-5.064-7.521-10.899-9.516-17.295a655755.513 655755.513 0 0 1-48.411-155.082h-.003c-3.894-14.976-5.982-30.693-6.006-46.902C116.847 85.608 198.465 2.76 299.319 2.601c100.863-.159 182.739 82.428 182.892 184.497.027 16.209-2.007 31.932-5.856 46.92z"/><path fill="url(#b)" d="m96.227 139.237 8.297-.207c-.961 4.47-7.64 3.828-8.297.207z" transform="matrix(3 0 0 3 0 0)"/><path fill="#9f6037" d="M289.029 418.56c-1.113-.15-.945-1.737.24-1.626.129.018 12.924 1.638 23.634-.645 1.158-.225 1.5 1.365.39 1.602-8.391 1.794-19.248 1.374-24.264.669zm11.22-10.71c-4.509 0-8.88-1.563-13.272-2.328-4.92-.861-9.822-.123-14.745.312-5.028.447-15.999-.039-19.095-1.998-1.734-1.101-1.41-3.663.543-4.347 1.842-.66 4.713.708 6.573 1.041 8.616 1.545 13.152-.102 20.706-.354 11.553-.348 12.78 4.503 27.192 1.59 15.495-3.132 22.473-.762 33.591-4.11 1.524-.462 3.336-1.68 4.935-.858 1.845.954 1.755 3.555-.147 4.392-10.218 4.506-21.522 2.685-32.865 4.578-4.446.738-8.877 2.082-13.416 2.082z"/><path fill="url(#c)" d="M76.732 78.383c4.587.679 7.931 3.488 10.773 7.94.004.005.013.004.018.008.007.027.021.053.026.08.255 1.007-.816 1.819-2.155 2.438-4.771.609-9.359 1.489-14.194.87-9.681-1.241-9.855-5.509-10.326-6.629-.252-1.101-.325-1.417-.311-2.473 2.332-1.366 4.043-1.647 5.854-2.005 2.124-.418 6.851-.744 10.315-.229z" transform="scale(3)"/><path fill="#3e4442" d="M240.75 252c0 9.939-8.061 18-18 18s-18-8.061-18-18c0-9.942 8.061-18 18-18 9.939-.003 18 8.058 18 18z"/><path fill="url(#d)" d="m73.328 78.066-.071.009.085.406c-.006-.137-.009-.277-.014-.415zm.013.414c.07 1.972.185 3.729.517 4.364.175-.696-.123-2.43-.517-4.364zm.518 4.365c-.043.167-.108.281-.208.319-.1.038-.226-.006-.368-.103.041.167.037.297-.036.378-.072.081-.201.101-.373.078.113.13.171.249.146.353-.027.104-.134.182-.293.242.159.063.266.141.291.245.025.104-.033.223-.145.352.17-.021.301.001.371.082.071.081.075.212.035.379.141-.097.265-.139.365-.1.101.038.166.152.206.32.081-.152.171-.249.28-.26.104-.014.216.059.329.188.001-.172.037-.299.127-.36.088-.061.219-.049.379.013-.078-.152-.105-.281-.055-.377.05-.095.173-.146.344-.166-.141-.099-.227-.2-.225-.308 0-.108.084-.209.227-.306-.17-.021-.291-.072-.342-.167-.049-.095-.022-.225.058-.377-.162.06-.292.072-.38.011-.089-.061-.125-.188-.125-.36-.112.128-.224.199-.33.185-.108-.014-.199-.108-.278-.261zm.607.075c.479-.535 1.021-2.209 1.57-4.104-.854 1.777-1.569 3.386-1.57 4.104zm1.569-4.104c.06-.122.121-.246.178-.37-.021-.007-.042-.017-.063-.026-.038.133-.076.266-.115.396zm-1.063 4.454c.672-.252 1.931-1.483 3.297-2.905-1.581 1.176-2.963 2.269-3.297 2.905zm3.297-2.905.305-.225c-.014-.018-.03-.033-.042-.049-.087.09-.174.183-.263.274zm-3.015 3.449c.713.088 2.4-.417 4.272-1.041-1.948.308-3.678.633-4.272 1.041zm4.272-1.04.337-.052-.014-.057-.323.109zm-4.273 1.653c.59.412 2.318.747 4.262 1.063-1.865-.633-3.548-1.148-4.262-1.063zm4.263 1.063c.095.033.191.067.285.098a.454.454 0 0 0 .012-.05 18.227 18.227 0 0 1-.297-.048zm-4.551-.52c.333.637 1.708 1.738 3.282 2.924-1.359-1.43-2.609-2.668-3.282-2.924zm3.283 2.922.179.189.03-.032c-.07-.052-.142-.105-.209-.157zm-3.788-2.575c-.003.719.703 2.331 1.547 4.113-.539-1.897-1.07-3.575-1.547-4.113zm1.547 4.114c.021.075.043.152.063.229l.039-.014a8.622 8.622 0 0 0-.102-.215zm-2.156-4.042c-.336.637-.461 2.39-.542 4.361.404-1.93.713-3.663.542-4.361zm-.542 4.361c-.017.075-.031.151-.047.228.014.003.025.003.039.005l.008-.233zm-.029-4.581c-.596.407-1.521 1.904-2.508 3.61 1.254-1.52 2.334-2.912 2.508-3.61zm-2.508 3.61-.162.193.038.024.124-.217zm2.103-4.069c-.716.083-2.231.978-3.898 2.029 1.818-.762 3.418-1.491 3.898-2.029zm-3.899 2.031-.263.11c.006.013.015.027.023.04.081-.049.161-.1.24-.15zm3.752-2.628c-.671-.257-2.429-.168-4.395-.011 1.964.168 3.722.265 4.395.011zm-4.395-.011a38.67 38.67 0 0 0-.323-.029c0 .019-.002.038 0 .056l.323-.027zm4.542-.583c-.473-.539-2.069-1.277-3.881-2.051 1.659 1.06 3.169 1.964 3.881 2.051zm-3.881-2.051a43.261 43.261 0 0 0-.315-.201.71.71 0 0 1-.029.055c.116.049.232.097.344.146zm4.29 1.593c-.169-.698-1.241-2.094-2.485-3.623.976 1.712 1.893 3.213 2.485 3.623zm-2.485-3.623c-.067-.115-.132-.232-.199-.349l-.056.039c.084.103.172.207.255.31z" opacity=".7" transform="matrix(3 0 0 3 .75 0)"/><path fill="url(#e)" d="m74.886 78.086-.07-.01-.024.414c.03-.134.063-.27.094-.404zm-.095.403c-.442 1.922-.787 3.649-.629 4.35.349-.628.509-2.38.629-4.35zm-.63 4.35c-.084.15-.176.243-.283.254-.106.01-.216-.064-.327-.195-.004.171-.042.297-.133.356-.09.059-.221.045-.38-.021.076.155.101.285.049.378-.053.094-.176.142-.345.158.137.101.22.204.217.312-.002.107-.089.207-.231.302.169.024.29.079.337.174.048.096.018.225-.064.375.161-.057.292-.065.379-.002.087.063.12.19.116.363.117-.125.229-.196.337-.179.105.014.194.113.27.268.045-.167.113-.279.216-.315.101-.036.225.01.363.111-.036-.167-.029-.299.044-.378.073-.079.205-.096.376-.072-.111-.132-.168-.251-.138-.355.028-.104.136-.18.299-.237-.16-.064-.263-.145-.288-.25-.023-.105.037-.223.154-.349-.172.016-.301-.006-.37-.088-.07-.082-.072-.214-.028-.379-.142.094-.268.134-.367.093-.103-.041-.165-.156-.203-.324zm.568.231c.601-.394 1.557-1.871 2.578-3.558-1.285 1.495-2.391 2.863-2.578 3.558zm2.578-3.559c.089-.102.18-.206.268-.311-.019-.013-.036-.028-.055-.042-.071.119-.142.238-.213.353zm-2.18 4.027c.715-.07 2.25-.934 3.937-1.953-1.833.727-3.45 1.425-3.937 1.953zm3.936-1.954.354-.138c-.01-.021-.021-.04-.028-.059-.108.066-.216.133-.326.197zm-3.804 2.553c.666.27 2.426.218 4.395.101-1.961-.208-3.716-.342-4.395-.101zm4.395.1.339.037.002-.058-.341.021zm-4.554.492c.462.551 2.046 1.321 3.842 2.129-1.639-1.095-3.131-2.027-3.842-2.129zm3.841 2.129c.083.057.167.114.25.168a1.01 1.01 0 0 0 .025-.045c-.09-.039-.184-.081-.275-.123zm-4.261-1.679c.156.701 1.2 2.12 2.414 3.674-.943-1.734-1.83-3.254-2.414-3.674zm2.414 3.671.125.229c.012-.009.024-.016.037-.024l-.162-.205zm-2.991-3.467c-.188.693.076 2.433.43 4.373-.031-1.972-.109-3.73-.43-4.373zm.429 4.373c.001.078.003.158.003.238.014-.002.027-.004.041-.004a19.229 19.229 0 0 0-.044-.234zm-1.036-4.462c-.49.528-1.064 2.189-1.652 4.072.889-1.759 1.637-3.353 1.652-4.072zm-1.653 4.072-.104.208.036.015.068-.223zM73 84.934c-.68.239-1.962 1.446-3.357 2.838 1.607-1.144 3.009-2.209 3.357-2.838zm-3.356 2.838-.205.145c.01.011.02.02.029.032.057-.059.117-.117.176-.177zm3.084-3.387c-.713-.104-2.407.368-4.291.952 1.955-.266 3.688-.556 4.291-.952zm-4.291.954c-.092.013-.187.024-.283.039a.32.32 0 0 0 .013.044c.091-.026.181-.056.27-.083zm4.304-1.567c-.582-.423-2.303-.792-4.242-1.149 1.854.671 3.526 1.22 4.242 1.149zm-4.242-1.149-.305-.112-.015.054.32.058zm4.539.612c-.318-.643-1.668-1.769-3.219-2.986 1.328 1.455 2.553 2.719 3.219 2.986zm-3.22-2.985-.251-.275-.042.046c.099.076.198.152.293.229zm3.733 2.649c.017-.718-.656-2.344-1.464-4.142.5 1.906.998 3.593 1.464 4.142zm-1.464-4.142-.101-.389a1.17 1.17 0 0 0-.063.023l.164.366z" opacity=".4" transform="matrix(3 0 0 3 .75 0)"/><path fill="#3e4442" d="M229.812 252a7.062 7.062 0 0 1-14.121 0 7.06 7.06 0 1 1 14.121 0z"/><path d="M229.812 252a7.062 7.062 0 0 1-14.121 0 7.06 7.06 0 1 1 14.121 0z" opacity=".9"/><path fill="url(#f)" d="M70.717 86.748a.981.981 0 1 1 1.091 1.63.981.981 0 0 1-1.091-1.63z" opacity=".5" transform="matrix(3 0 0 3 .75 0)"/><path fill="url(#g)" d="M75.86 83.672c-.251.374-.969.331-1.606-.096-.638-.427-.95-1.078-.7-1.451v-.001c.25-.374.969-.331 1.605.097.639.426.951 1.076.701 1.451z" opacity=".5" transform="matrix(3 0 0 3 .75 0)"/><path fill="url(#h)" d="M78.716 82.673c-.568.873-2.036.925-3.275.117-1.24-.808-1.784-2.17-1.215-3.043.568-.872 2.036-.924 3.275-.117 1.239.809 1.783 2.172 1.215 3.043z" opacity=".75" transform="matrix(3 0 0 3 .75 0)"/><path fill="#cda184" d="M165.336 250.749c9.672 33.945 22.425 69.939 53.055 71.007s66.405-21.717 66.87-66.714c.519-50.301-31.422-70.143-62.052-71.211s-72.288 16.311-57.873 66.918zm17.289-1.479c-.756-3.303-.975-4.251-.933-7.419 6.081-3.63 12.12-4.641 17.553-5.715 6.369-1.254 20.559-2.535 30.951-.987 13.761 2.037 23.793 10.464 32.319 23.82.012.015.039.012.054.024.021.081.063.159.078.24.765 3.021-2.448 5.457-6.465 7.314-14.313 1.827-28.077 4.467-42.582 2.61-29.043-3.723-29.565-16.527-30.975-19.887z"/><path fill="url(#i)" d="M74.225 95.171c9.256 1.401 17.847-3.01 19.186-9.859 1.34-6.849-5.072-13.537-14.329-14.94-9.258-1.399-17.845 3.012-19.185 9.862-1.34 6.848 5.07 13.532 14.328 14.937zM60.563 80.617c2.125-1.141 4.04-1.547 5.851-1.905 2.123-.418 6.853-.845 10.317-.329 4.587.679 7.931 3.488 10.773 7.94.004.005.013.004.018.008.007.027.021.053.026.08.255 1.007-.816 1.819-2.155 2.438-4.771.609-9.359 1.489-14.194.87-9.681-1.241-9.855-5.509-10.326-6.629-.251-1.101-.323-1.418-.31-2.473z" transform="scale(3)"/><path fill="url(#j)" d="M60.875 83.09c-.252-1.101-.325-1.417-.311-2.473 2.092-1.175 4.04-1.547 5.851-1.905 2.123-.418 6.853-.845 10.317-.329 4.587.679 7.931 3.488 10.773 7.94.004.005.013.004.018.008.007.027.021.053.026.08.255 1.007-.816 1.819-2.155 2.438-4.771.609-9.359 1.489-14.194.87-9.681-1.241-9.855-5.509-10.325-6.629z" transform="scale(3)"/><path fill="#9f6037" d="M228.981 227.244c9.882 1.617 19.515 6.162 28.44 11.835 1.911 1.212 4.098 2.595 7.563 4.353-2.484-.564-4.782-1.851-6.927-3.033 2.208 2.094 4.266 4.587 5.946 7.002-7.563-9.477-21.891-16.614-34.08-19.047-11.706-2.337-32.967-.792-48.753 6.126 14.454-8.133 35.541-9.24 47.811-7.236z"/><path d="M262.524 258.831c-8.541-13.02-18.579-21.246-32.343-23.241-14.499-2.115-33.813-.663-45.102 5.529-.924.507-4.821 3.747-4.203.351 2.622-3.501 12.966-7.569 17.979-8.784 56.235-13.629 66.891 30.876 63.669 26.145zm-80.586-10.308c-2.148 6.189 2.583 19.962 30.435 22.509 19.785 1.806 47.301-5.25 43.902-4.839-14.337 1.767-28.125 4.347-42.657 2.517-32.946-4.14-29.214-19.641-31.68-20.187z"/><path fill="url(#k)" d="M122.867 78.383c-4.586.679-7.931 3.488-10.773 7.94-.004.005-.012.004-.018.008-.006.027-.02.053-.025.08-.256 1.007.815 1.819 2.154 2.438 4.771.609 9.359 1.489 14.194.87 9.681-1.241 9.855-5.509 10.325-6.629.253-1.101.325-1.417.312-2.473-2.331-1.366-4.043-1.647-5.854-2.005-2.123-.418-6.85-.744-10.315-.229z" transform="scale(3)"/><path fill="#3e4442" d="M395.25 252c0 9.939-8.061 18-17.997 18-9.939 0-18.003-8.061-18.003-18 0-9.942 8.064-18 18.003-18 9.936-.003 17.997 8.058 17.997 18z"/><path fill="url(#l)" d="m125.328 78.066-.071.009c.029.135.058.271.085.406-.006-.137-.009-.277-.014-.415zm.013.414c.069 1.972.185 3.729.518 4.364.174-.696-.124-2.43-.518-4.364zm.517 4.365c-.042.167-.108.281-.207.319-.101.038-.226-.006-.367-.103.04.167.036.297-.036.378-.072.081-.201.101-.372.078.112.13.171.249.146.353-.028.104-.134.182-.293.242.158.063.265.141.29.245.025.104-.032.223-.145.352.17-.021.3.001.37.082.071.081.075.212.035.379.141-.097.266-.139.365-.1.102.038.166.152.206.32.08-.152.172-.249.279-.26.105-.014.217.059.329.188.002-.172.037-.299.128-.36.087-.061.219-.049.379.013-.078-.152-.104-.281-.056-.377.051-.095.174-.146.345-.166-.141-.099-.228-.2-.225-.308-.001-.108.084-.209.227-.306-.171-.021-.291-.072-.342-.167-.05-.095-.022-.225.057-.377-.161.06-.291.072-.38.011s-.124-.188-.125-.36c-.111.128-.224.199-.33.185-.107-.014-.198-.108-.278-.261zm.608.075c.479-.535 1.021-2.209 1.569-4.104-.853 1.777-1.567 3.386-1.569 4.104zm1.569-4.104c.06-.122.121-.246.179-.37-.021-.007-.042-.017-.063-.026l-.116.396zm-1.063 4.454c.673-.252 1.932-1.483 3.298-2.905-1.582 1.176-2.963 2.269-3.298 2.905zm3.298-2.905.305-.225c-.015-.018-.03-.033-.042-.049-.088.09-.175.183-.263.274zm-3.015 3.449c.713.088 2.399-.417 4.271-1.041-1.948.308-3.678.633-4.271 1.041zm4.271-1.04.337-.052-.014-.057-.323.109zm-4.273 1.653c.591.412 2.318.747 4.263 1.063-1.866-.633-3.549-1.148-4.263-1.063zm4.263 1.063c.095.033.19.067.285.098a.92.92 0 0 0 .013-.05 15.38 15.38 0 0 1-.298-.048zm-4.551-.52c.332.637 1.708 1.738 3.282 2.924-1.358-1.43-2.609-2.668-3.282-2.924zm3.283 2.922.178.189c.01-.012.02-.021.031-.032-.07-.052-.142-.105-.209-.157zm-3.787-2.575c-.003.719.702 2.331 1.547 4.113-.54-1.897-1.071-3.575-1.547-4.113zm1.547 4.114c.021.075.043.152.063.229a.474.474 0 0 1 .039-.014 49.358 49.358 0 0 0-.102-.215zm-2.157-4.042c-.336.637-.461 2.39-.542 4.361.404-1.93.713-3.663.542-4.361zm-.542 4.361c-.017.075-.031.151-.047.228.014.003.024.003.039.005l.008-.233zm-.03-4.581c-.596.407-1.521 1.904-2.508 3.61 1.255-1.52 2.334-2.912 2.508-3.61zm-2.508 3.61c-.052.063-.107.13-.161.193.013.008.024.014.037.024l.124-.217zm2.103-4.069c-.716.083-2.23.978-3.897 2.029 1.818-.762 3.418-1.491 3.897-2.029zm-3.897 2.031c-.087.036-.175.072-.263.11a.273.273 0 0 0 .023.04l.24-.15zm3.752-2.628c-.672-.257-2.43-.168-4.396-.011 1.965.168 3.722.265 4.396.011zm-4.396-.011-.322-.029c-.001.019-.003.038-.001.056l.323-.027zm4.543-.583c-.474-.539-2.069-1.277-3.882-2.051 1.659 1.06 3.169 1.964 3.882 2.051zm-3.882-2.051-.315-.201a1.399 1.399 0 0 1-.028.055c.115.049.232.097.343.146zm4.29 1.593c-.169-.698-1.241-2.094-2.485-3.623.976 1.712 1.893 3.213 2.485 3.623zm-2.485-3.623a19.685 19.685 0 0 1-.198-.349l-.057.039c.085.103.172.207.255.31z" opacity=".7" transform="matrix(3 0 0 3 -.75 0)"/><path fill="url(#m)" d="m126.886 78.086-.07-.01-.024.414c.029-.134.062-.27.094-.404zm-.095.403c-.443 1.922-.787 3.649-.63 4.35.35-.628.51-2.38.63-4.35zm-.63 4.35c-.084.15-.177.243-.283.254-.106.01-.216-.064-.327-.195-.004.171-.042.297-.133.356-.09.059-.221.045-.38-.021.075.155.101.285.049.378-.054.094-.176.142-.346.158.138.101.22.204.217.312-.002.107-.089.207-.23.302.17.024.289.079.337.174.048.096.018.225-.064.375.162-.057.293-.065.38-.002.087.063.12.19.115.363.117-.125.229-.196.337-.179.105.014.194.113.27.268.046-.167.113-.279.216-.315.101-.036.226.01.363.111-.035-.167-.028-.299.045-.378.072-.079.204-.096.375-.072-.11-.132-.168-.251-.138-.355.027-.104.136-.18.299-.237-.159-.064-.263-.145-.288-.25-.022-.105.038-.223.154-.349-.172.016-.302-.006-.37-.088-.07-.082-.072-.214-.027-.379-.143.094-.269.134-.368.093-.102-.041-.166-.156-.203-.324zm.568.231c.601-.394 1.557-1.871 2.578-3.558-1.285 1.495-2.391 2.863-2.578 3.558zm2.578-3.559c.089-.102.18-.206.269-.311-.02-.013-.037-.028-.056-.042-.071.119-.142.238-.213.353zm-2.18 4.027c.715-.07 2.249-.934 3.937-1.953-1.833.727-3.45 1.425-3.937 1.953zm3.936-1.954.354-.138c-.01-.021-.021-.04-.028-.059-.108.066-.216.133-.326.197zm-3.804 2.553c.666.27 2.426.218 4.396.101-1.963-.208-3.717-.342-4.396-.101zm4.395.1.339.037.002-.058-.341.021zm-4.554.492c.463.551 2.046 1.321 3.842 2.129-1.639-1.095-3.131-2.027-3.842-2.129zm3.841 2.129c.082.057.167.114.25.168a.328.328 0 0 0 .024-.045 15.678 15.678 0 0 1-.274-.123zm-4.26-1.679c.155.701 1.199 2.12 2.413 3.674-.943-1.734-1.829-3.254-2.413-3.674zm2.414 3.671.124.229a.337.337 0 0 1 .037-.024c-.054-.068-.11-.138-.161-.205zm-2.992-3.467c-.188.693.076 2.433.43 4.373-.031-1.972-.109-3.73-.43-4.373zm.429 4.373c.001.078.003.158.003.238.015-.002.026-.004.04-.004a9.592 9.592 0 0 0-.043-.234zm-1.037-4.462c-.489.528-1.064 2.189-1.652 4.072.89-1.759 1.637-3.353 1.652-4.072zm-1.652 4.072-.104.208.035.015.069-.223zM125 84.934c-.68.239-1.961 1.446-3.356 2.838 1.606-1.144 3.008-2.209 3.356-2.838zm-3.356 2.838-.205.145c.01.011.02.02.029.032.057-.059.118-.117.176-.177zm3.084-3.387c-.713-.104-2.406.368-4.29.952 1.954-.266 3.688-.556 4.29-.952zm-4.29.954c-.093.013-.188.024-.283.039l.013.044c.09-.026.18-.056.27-.083zm4.303-1.567c-.582-.423-2.303-.792-4.242-1.149 1.854.671 3.526 1.22 4.242 1.149zm-4.242-1.149-.305-.112a.752.752 0 0 0-.015.054l.32.058zm4.539.612c-.318-.643-1.669-1.769-3.22-2.986 1.329 1.455 2.554 2.719 3.22 2.986zm-3.22-2.985-.251-.275-.043.046c.099.076.2.152.294.229zm3.733 2.649c.017-.718-.656-2.344-1.464-4.142.501 1.906.998 3.593 1.464 4.142zm-1.464-4.142-.102-.389a1.17 1.17 0 0 0-.063.023l.165.366z" opacity=".4" transform="matrix(3 0 0 3 -.75 0)"/><path fill="#3e4442" d="M384.312 252a7.06 7.06 0 0 1-7.059 7.059 7.06 7.06 0 1 1 0-14.121 7.058 7.058 0 0 1 7.059 7.062z"/><path d="M384.312 252a7.06 7.06 0 0 1-7.059 7.059 7.06 7.06 0 1 1 0-14.121 7.058 7.058 0 0 1 7.059 7.062z" opacity=".9"/><path fill="url(#n)" d="M122.718 86.748a.98.98 0 1 1 1.09 1.628.98.98 0 0 1-1.09-1.628z" opacity=".5" transform="matrix(3 0 0 3 -.75 0)"/><path fill="url(#o)" d="M127.859 83.672c-.251.374-.969.331-1.605-.096-.638-.427-.95-1.078-.7-1.451l.001-.001c.25-.374.969-.331 1.605.097.638.426.95 1.076.699 1.451z" opacity=".5" transform="matrix(3 0 0 3 -.75 0)"/><path fill="url(#p)" d="M130.717 82.673c-.569.873-2.036.925-3.276.117-1.239-.808-1.784-2.17-1.215-3.043.568-.872 2.035-.924 3.275-.117 1.239.809 1.783 2.172 1.216 3.043z" opacity=".75" transform="matrix(3 0 0 3 -.75 0)"/><path fill="#cda184" d="M375.591 183.831c-30.633 1.068-62.571 20.91-62.055 71.211.462 45 36.237 67.785 66.87 66.714 30.63-1.068 48.561-51.969 53.055-71.007 12.09-51.213-27.24-67.986-57.87-66.918zm9.606 85.326c-14.505 1.857-28.269-.783-42.582-2.61-4.017-1.854-7.23-4.29-6.462-7.314.018-.081.06-.159.075-.24.018-.012.042-.009.054-.024 8.529-13.356 18.564-21.783 32.319-23.82 10.395-1.548 24.585-.267 30.954.987 5.433 1.071 11.472 2.082 17.553 5.715.042 3.165-.177 4.116-.936 7.419-1.407 3.36-1.932 16.164-30.975 19.887z"/><path fill="url(#q)" d="M139.703 80.234c-1.34-6.85-9.928-11.261-19.186-9.862-9.257 1.403-15.669 8.091-14.328 14.94 1.339 6.849 9.93 11.26 19.186 9.859 9.258-1.405 15.668-8.089 14.328-14.937zm-.978 2.856c-.47 1.121-.645 5.388-10.325 6.629-4.835.619-9.423-.261-14.194-.87-1.339-.618-2.41-1.43-2.154-2.438.006-.027.02-.053.025-.08.006-.004.014-.003.018-.008 2.843-4.452 6.188-7.261 10.773-7.94 3.465-.516 8.195-.089 10.318.329 1.811.357 3.727.764 5.851 1.905.013 1.055-.059 1.372-.312 2.473z" transform="scale(3)"/><path fill="url(#r)" d="M138.725 83.09c.253-1.101.325-1.417.312-2.473-2.092-1.175-4.04-1.547-5.851-1.905-2.123-.418-6.854-.845-10.318-.329-4.586.679-7.931 3.488-10.773 7.94-.004.005-.012.004-.018.008-.006.027-.02.053-.025.08-.256 1.007.815 1.819 2.154 2.438 4.771.609 9.359 1.489 14.194.87 9.68-1.241 9.855-5.509 10.325-6.629z" transform="scale(3)"/><path fill="#9f6037" d="M369.819 227.244c-9.885 1.617-19.518 6.162-28.44 11.835-1.911 1.212-4.101 2.595-7.563 4.353 2.484-.564 4.782-1.851 6.927-3.033-2.208 2.094-4.266 4.587-5.946 7.002 7.563-9.477 21.891-16.614 34.077-19.047 11.706-2.337 32.967-.792 48.756 6.126-14.457-8.133-35.544-9.24-47.811-7.236z"/><path d="M399.942 232.689c5.016 1.215 15.357 5.283 17.982 8.784.615 3.396-3.282.156-4.206-.351-11.292-6.192-30.603-7.644-45.099-5.529-13.764 1.995-23.808 10.221-32.343 23.241-3.222 4.728 7.434-39.777 63.666-26.145zm-14.757 36.021c-14.532 1.83-28.317-.75-42.657-2.517-3.402-.411 24.114 6.645 43.899 4.839 27.852-2.547 32.583-16.32 30.435-22.509-2.469.546 1.266 16.047-31.677 20.187z"/><path fill="url(#s)" d="M141 113.974c.035 22.622-18.292 40.994-40.938 41.025-22.642.037-41.028-18.273-41.063-40.9-.035-22.62 18.292-41.064 40.937-41.1 22.643-.035 41.031 18.35 41.064 40.975z" transform="scale(3)"/><path fill="url(#t)" d="M137.5 53.999c0 20.711-16.789 37.5-37.499 37.5-20.711 0-37.501-16.789-37.501-37.5s16.79-37.5 37.501-37.5c20.71 0 37.499 16.789 37.499 37.5z" transform="scale(3)"/><path fill="#2a232b" d="M157.464 221.61c22.425-28.149 61.014-23.466 92.634-18.942 8.043 1.152 16.323 2.016 24.21 4.008 5.652 1.425 10.095 7.866 5.553 13.068-2.124 2.475-6.759 2.016-9.621 1.956-37.863-.765-80.661-22.539-112.776-.09zM442.731 220.47c-6.492-4.344-13.362-7.41-21.129-8.667-28.491-4.62-82.758 14.37-97.023 10.35-8.736-2.466-6.969-11.217-3.105-13.374 2.325-1.299 2.97-1.266 23.727-4.836 35.271-6.06 74.763-10.878 97.53 16.527z"/><path fill="#be8a67" d="M295.899 269.997s-5.13 34.26-7.536 43.365c-2.415 9.141-12.234 24.156-11.586 32.892.966 12.942 19.053 13.743 25.755 13.743l-11.139-13.416s5.205-22.845 5.748-31.584c.57-9.225-1.242-45-1.242-45z"/><path fill="#9f6037" d="M294 258.174s4.107 32.823-.351 58.002c-1.431 8.082-11.727 22.356-10.14 30.405 1.131 5.712 19.026 13.416 19.026 13.416s-7.716-9.033-7.869-13.416c-.27-7.743 4.692-22.248 5.178-29.985.735-11.73-5.844-58.422-5.844-58.422z"/><path fill="#2a232b" d="M300 54.39zM300 54.39zM134.922 284.685c-7.269-26.445-11.184-49.599-16.62-73.755l.249-.057c-2.058-5.067-9.486-45.18-9.555-45.612-7.575-53.31 14.979-56.352 14.52-78.594 9.495 4.755 18.726 2.397 27.057-4.095-8.754-4.497-5.991-5.208-17.616-12.285 8.193-1.416 12.978.495 19.938 1.362-5.949-5.949-17.625-18.084-25.212-16.476l-.495-1.062c10.983-8.571 25.644 9.273 38.862 4.44.399-49.119 72.201-59.319 89.676-66.618 23.265-8.853 47.568-28.323 64.659-30.063-9.675 9.723-15.6 25.347-16.041 37.074 14.094-13.458 15.09-13.065 36.453-36.792 0 19.092-5.289 21.489-12.153 32.694 18.633-12.21 41.865-46.467 77.643-51.705l.393 1.11c-12.894 7.596-22.872 20.412-29.694 38.124 6.771-8.178 16.353-17.049 26.958-18.654l.399 1.107c-6.645 3.975-19.662 17.226-22.641 39.414 13.143-14.679 34.05-26.844 48.402-31.44l.561 1.038c-13.176 10.719-18.459 29.484-21.438 45.438 9.24-13.74 14.616-16.872 26.241-22.644-3.741 5.595-3.498 4.617-6.474 10.698 7.188 18.369 30.939 19.083 34.998 51.177 4.89-4.272 6.831-5.343 12.453-9.276l.846.816c-4.224 6.561-7.707 18.18-10.026 25.956 8.34-6.369 21.219-11.061 30.288-14.334l.633.984c-7.653 7.779-16.944 19.638-18.486 32.502 3-1.776 3.144-1.572 7.05-4.398 0 9.243.315 8.064.381 12.315 3.771-3.375 4.35-3.846 6.828-6.543-.549 97.086-5.535 77.736-18.951 145.398-2.352 11.889-6.513 32.649-9.183 42.621l-18.147 3.117c5.61-67.182-.279-52.536 3.801-94.812 6.036-62.337-44.412-113.436-111.075-96.711-13.488 3.384-67.32 3.381-80.802 0-73.641-18.489-100.173 24.54-108.078 99.834-3.873 36.954-4.821 24.483.801 91.689l-17.403-2.982z"/><path fill="#3a353a" d="M487.128 103.077c-.063-4.254-.381-3.072-.381-12.315-3.906 2.823-4.05 2.622-7.05 4.398 1.542-12.864 10.833-24.723 18.486-32.502l-.633-.984c-9.066 3.276-21.945 7.965-30.288 14.334 2.316-7.776 5.802-19.395 10.026-25.956l-.846-.816c-5.622 3.933-7.563 5.004-12.453 9.276-4.059-32.091-27.81-32.808-34.998-51.177 2.976-6.081 2.733-5.103 6.474-10.698-11.625 5.772-17.001 8.904-26.241 22.644 2.979-15.954 8.265-34.719 21.438-45.438l-.561-1.038c-14.352 4.596-35.259 16.761-48.402 31.44 2.979-22.188 15.996-35.439 22.641-39.414l-.399-1.107c-10.605 1.605-20.187 10.479-26.958 18.654 6.822-17.712 16.803-30.528 29.694-38.124l-.393-1.11c-35.778 5.238-59.01 39.495-77.643 51.705 6.864-11.205 12.153-13.605 12.153-32.694-21.363 23.727-22.359 23.334-36.453 36.792.438-11.727 6.366-27.354 16.041-37.074-17.088 1.74-41.391 21.207-64.659 30.063-17.472 7.296-89.274 17.496-89.673 66.618-13.218 4.833-27.879-13.011-38.862-4.44l.495 1.062c7.587-1.611 19.263 10.524 25.212 16.476-6.957-.867-11.745-2.778-19.938-1.362 11.625 7.077 8.862 7.788 17.616 12.285-8.331 6.492-17.562 8.85-27.057 4.095.459 22.245-22.098 25.287-14.52 78.594.069.432 7.497 40.545 9.555 45.612l-.249.057c5.436 24.156 9.351 47.313 16.62 73.755l.078.009c-1.983-49.326-33.06-119.448-14.823-164.364C122.556 114.468 131.76 99 131.76 99s28.881-3.792 30.24-15c0 0-6-3-9-6 6 3 6-6 12-3 0-6-9-3-9-9 6 0 12 0 18 6-3-15 0-30 12-39 30-24 69-21 99-45-3 15-6 30-6 45 18-9 24-27 39-39 3 12-3 27-3 39 9-21 21-42 48-48-12 12-12 30-12 45 0-12 12-18 15-27v36c6-18 18-27 33-33-12 12-9 24-12 39 9-9 21-12 30-21 9 18 3 33 3 51 3-15 18-24 27-36 3 15 3 30 0 45 3-9 9-15 12-24 0 14.58-2.004 27.186-5.94 39.426C456.825 95.07 462.972 93.093 465 87v36.081c1.74-3.576 6.87-4.824 9-9.081-2.562 10.239-.762 18.309-.177 27.906 1.113-5.88 6.774-9.486 8.82-14.901.12-2.334.243-4.671.354-7.005.687 2.736.405 4.992-.354 7.005-2.736 53.313-7.779 106.548-18.768 157.884l1.944-.333c2.67-9.972 6.828-30.732 9.183-42.621 13.419-67.662 18.405-48.312 18.951-145.398-2.475 2.697-3.054 3.168-6.825 6.54z"/><path d="M503.337 59.085c-14.847 2.502-25.218 7.314-33.15 12.75 1.155-3.015 6.579-20.01 12.42-27.15-8.97 3.999-14.16 8.289-17.16 10.53 0-3.096-1.194-6.672-1.77-8.52-.567-1.545-1.044-3.351-3.813-7.86-15.513-21.888-16.482-12.732-29.187-29.49 2.316-5.433 5.667-10.716 9.87-15.09-11.724 1.665-17.895 6.225-25.32 13.53-.12.12-.21.24-.3.36 4.653-18.378 13.77-34.311 31.68-40.29-22.152-.804-49.575 15.576-63.36 31.92 5.952-19.143 13.938-28.263 25.803-36.75-8.538-1.263-16.905 2.226-23.523 7.74 7.623-13.191 18.951-23.697 28.053-28.59-1.293-.03-2.82-.12-4.5 0-2.331-.597-16.437 1.698-21.48 3.87-24.987 9.756-43.167 32.466-50.97 39.84 5.748-9.294 6.03-15.894 4.98-25.56-1.965 1.689-34.845 33.165-35.25 33.57 2.331-12.927 6.735-20.811 15.06-32.37-14.841-2.778-51.996 21.651-75.03 28.17-24.132 6.537-84.012 20.169-81.27 68.1-12.885 2.457-31.752-18.231-41.64-.87 7.938-4.71 18.453 6.63 25.77 13.11-3-.489-13.029-2.844-17.88.39 5.682 2.205 10.65 8.796 17.67 12.3.09.03.18.06.27.12-6.417 3.384-14.001 6.102-20.97 4.17-1.05-.3-1.74-.48-1.74-.51-.81-.36-1.68-.72-2.61-1.14h-.03l-.03-.03c-.39-.21-.78-.42-1.2-.63 2.085 16.824-23.451 30.465-20.64 66.06 1.155 21.903 14.847 88.524 32.058 133.698l1.449.432c-7.176-25.878-11.331-50.22-16.707-74.103-.468 0-9.219-45.132-9.3-45.63-7.518-52.893 14.982-56.73 14.55-77.52 9.363 4.683 19.596 1.308 27.54-5.19-9.354-4.653-7.359-5.964-17.04-11.85 6.489-1.122 14.409 1.449 19.86 1.8-7.038-7.038-18.897-19.53-26.94-17.82 10.704-8.355 25.491 9.813 39.09 4.38 0-49.149 71.169-58.905 89.31-66.48 21.813-8.298 48.849-28.428 62.817-29.85-7.32 7.374-15.06 23.703-15.06 37.74 14.502-13.914 15.93-13.845 36.48-36.66 0 18.042-6.741 21.264-13.293 32.91 19.242-11.094 42.537-47.484 79.47-52.89-15.462 9.111-25.305 24.975-31.23 41.91 7.056-9.177 17.4-19.59 28.89-21.33-6.027 3.606-20.583 17.346-23.16 41.79 13.035-15.342 34.758-28.038 49.41-32.73-13.815 11.244-19.104 31.113-22.17 48.66 5.061-7.719 10.071-14.691 17.91-19.62.033-.03.09-.06.12-.06 3.087-2.097 2.28-1.527 7.563-4.17-2.007 3-2.193 2.61-5.37 9.12 7.278 19.131 31.569 19.239 35.187 52.41 5.571-4.941 7.323-5.832 13.26-9.99-4.626 7.182-8.352 20.304-10.65 27.96 8.715-7.455 24.837-12.99 31.62-15.45-9 9.15-17.739 21.288-18.78 34.08 1.842-1.239 4.182-2.22 7.17-4.38 0 8.172.39 7.08.39 12.48 1.578-1.443 5.16-4.53 6.813-6.33-.588 95.148-5.64 76.692-18.933 143.73-4.974 25.128-7.599 36.75-9.243 42.849l1.284-.261c10.752-32.253 32.211-105.126 31.242-142.848-.099-14.1-3.177-43.5-3.33-46.5-.063.054-6.252 5.91-6.33 5.91 0-1.533-.63-8.055-.63-11.61-1.059.813-3.285 2.334-6.27 4.08 4.137-12.489 10.434-20.25 22.2-34.347z"/><path fill="#26120b" d="M300 54.39z"/><defs><radialGradient id="c" cx="125.903" cy="85.096" r="13.25" class="svga-on-canvas-eyesback-gradient-left-0" gradientTransform="matrix(-1.0996 .0423 .0635 .9207 206.549 .593)" gradientUnits="userSpaceOnUse"><stop offset="0" stop-color="#fff"/><stop offset=".544" stop-color="#fdfefe"/><stop offset=".74" stop-color="#f6f8f9"/><stop offset=".879" stop-color="#eaeff2"/><stop offset=".992" stop-color="#d9e3e8"/><stop offset="1" stop-color="#d8e2e7"/></radialGradient><radialGradient id="s" cx="100" cy="114" r="41" class="svga-on-canvas-facehighlight-gradient-single-0" gradientUnits="userSpaceOnUse"><stop offset="0" stop-color="#dcbaa4" stop-opacity=".5"/><stop offset=".9" stop-color="#cda184" stop-opacity="0"/></radialGradient><radialGradient id="e" cx="-582.838" cy="-519.099" r="59.745" class="svga-on-canvas-eyesiris-gradient-left-2" gradientTransform="matrix(.0991 .00089 -.0011 .0991 131.113 135.986)" gradientUnits="userSpaceOnUse"><stop offset="0" stop-color="#fff"/><stop offset="1" stop-color="#fff" stop-opacity="0"/></radialGradient><radialGradient id="l" cx="-568.654" cy="-521.042" r="59.752" class="svga-on-canvas-eyesiris-gradient-right-1" gradientTransform="matrix(.096 -.0248 .0245 .0961 193.28 119.99)" gradientUnits="userSpaceOnUse"><stop offset="0" stop-color="#fff"/><stop offset="1" stop-color="#fff" stop-opacity="0"/></radialGradient><radialGradient id="m" cx="-582.833" cy="-519.102" r="59.747" class="svga-on-canvas-eyesiris-gradient-right-2" gradientTransform="matrix(.0991 .00089 -.0011 .0991 183.113 135.986)" gradientUnits="userSpaceOnUse"><stop offset="0" stop-color="#fff"/><stop offset="1" stop-color="#fff" stop-opacity="0"/></radialGradient><radialGradient id="t" cx="100" cy="54" r="37" class="svga-on-canvas-facehighlight-gradient-single-1" gradientUnits="userSpaceOnUse"><stop offset="0" stop-color="#dcbaa4" stop-opacity=".5"/><stop offset=".9" stop-color="#cda184" stop-opacity="0"/></radialGradient><radialGradient id="d" cx="-568.659" cy="-521.042" r="59.751" class="svga-on-canvas-eyesiris-gradient-left-1" gradientTransform="matrix(.096 -.0248 .0245 .0961 141.281 119.99)" gradientUnits="userSpaceOnUse"><stop offset="0" stop-color="#fff"/><stop offset="1" stop-color="#fff" stop-opacity="0"/></radialGradient><radialGradient id="k" cx="125.541" cy="85.113" r="13.249" class="svga-on-canvas-eyesback-gradient-right-0" gradientTransform="matrix(1.0996 .0423 -.0635 .9207 -6.549 .593)" gradientUnits="userSpaceOnUse"><stop offset="0" stop-color="#fff"/><stop offset=".544" stop-color="#fdfefe"/><stop offset=".74" stop-color="#f6f8f9"/><stop offset=".879" stop-color="#eaeff2"/><stop offset=".992" stop-color="#d9e3e8"/><stop offset="1" stop-color="#d8e2e7"/></radialGradient><radialGradient id="i" cx="123.371" cy="81.442" r="17.038" class="svga-on-canvas-eyesfront-gradient-left-3" fx="136.805" fy="80.36" gradientTransform="matrix(.9884 .1367 .1336 -.7354 -56.068 125.3)" gradientUnits="userSpaceOnUse"><stop offset="0" stop-color="#be8a67"/><stop offset=".7" stop-color="#be8a67" stop-opacity=".3"/><stop offset="1" stop-color="#cda184" stop-opacity="0"/></radialGradient><radialGradient id="j" cx="78.965" cy="81.143" r="26.237" class="svga-on-canvas-eyesfront-gradient-left-4" gradientTransform="matrix(.7183 -.06 .0803 .6143 8.791 49.26)" gradientUnits="userSpaceOnUse"><stop offset=".95" stop-opacity="0"/><stop offset="1" stop-opacity=".2"/></radialGradient><radialGradient id="q" cx="122.972" cy="81.425" r="17.037" class="svga-on-canvas-eyesfront-gradient-right-3" fx="136.406" fy="80.344" gradientTransform="matrix(-.9884 .1367 -.1336 -.7354 255.271 125.342)" gradientUnits="userSpaceOnUse"><stop offset="0" stop-color="#be8a67"/><stop offset=".7" stop-color="#be8a67" stop-opacity=".3"/><stop offset="1" stop-color="#cda184" stop-opacity="0"/></radialGradient><radialGradient id="r" cx="79.515" cy="81.186" r="26.237" class="svga-on-canvas-eyesfront-gradient-right-4" gradientTransform="matrix(-.7183 -.06 -.0803 .6143 191.208 49.267)" gradientUnits="userSpaceOnUse"><stop offset=".95" stop-opacity="0"/><stop offset="1" stop-opacity=".2"/></radialGradient><linearGradient id="p" x1="129.636" x2="127.91" y1="79.822" y2="81.879" class="svga-on-canvas-eyesiris-gradient-right-7" gradientUnits="userSpaceOnUse"><stop offset="0" stop-color="#fff"/><stop offset="1" stop-color="#fff" stop-opacity="0"/></linearGradient><linearGradient id="g" x1="127.212" x2="126.463" y1="82.296" y2="83.189" class="svga-on-canvas-eyesiris-gradient-left-6" gradientTransform="translate(-52)" gradientUnits="userSpaceOnUse"><stop offset="0" stop-color="#fff"/><stop offset="1" stop-color="#fff" stop-opacity="0"/></linearGradient><linearGradient id="h" x1="129.636" x2="127.91" y1="79.822" y2="81.879" class="svga-on-canvas-eyesiris-gradient-left-7" gradientTransform="translate(-52)" gradientUnits="userSpaceOnUse"><stop offset="0" stop-color="#fff"/><stop offset="1" stop-color="#fff" stop-opacity="0"/></linearGradient><linearGradient id="b" x1="100" x2="100" y1="142" y2="139" class="svga-on-canvas-mouth-gradient-single-0" gradientUnits="userSpaceOnUse"><stop offset=".1" stop-color="#c59575"/><stop offset="1" stop-color="#be8a67"/></linearGradient><linearGradient id="a" x1="100" x2="100" y1="171" y2="131" class="svga-on-canvas-chinshadow-gradient-single-0" gradientUnits="userSpaceOnUse"><stop offset="0" stop-color="#be8a67" stop-opacity=".8"/><stop offset=".7" stop-color="#9f6037"/></linearGradient><linearGradient id="f" x1="122.67" x2="123.606" y1="88.268" y2="87.152" class="svga-on-canvas-eyesiris-gradient-left-5" gradientTransform="translate(-52)" gradientUnits="userSpaceOnUse"><stop offset="0" stop-color="#fff"/><stop offset="1" stop-color="#fff" stop-opacity="0"/></linearGradient><linearGradient id="o" x1="127.212" x2="126.463" y1="82.296" y2="83.189" class="svga-on-canvas-eyesiris-gradient-right-6" gradientUnits="userSpaceOnUse"><stop offset="0" stop-color="#fff"/><stop offset="1" stop-color="#fff" stop-opacity="0"/></linearGradient><linearGradient id="n" x1="122.67" x2="123.606" y1="88.268" y2="87.152" class="svga-on-canvas-eyesiris-gradient-right-5" gradientUnits="userSpaceOnUse"><stop offset="0" stop-color="#fff"/><stop offset="1" stop-color="#fff" stop-opacity="0"/></linearGradient></defs></svg>